<svg width="70" height="71" viewBox="0 0 70 71" fill="none" xmlns="http://www.w3.org/2000/svg">
<path d="M65.625 35.5C65.625 29.443 63.8289 23.5219 60.4638 18.4857C57.0986 13.4494 52.3157 9.52413 46.7197 7.2062C41.1237 4.88826 34.966 4.28179 29.0254 5.46346C23.0847 6.64513 17.6278 9.56188 13.3449 13.8449C9.06188 18.1278 6.14513 23.5847 4.96346 29.5254C3.78179 35.466 4.38826 41.6237 6.7062 47.2197C9.02413 52.8157 12.9494 57.5986 17.9857 60.9638C23.0219 64.3289 28.943 66.125 35 66.125C43.1223 66.125 50.9118 62.8984 56.6551 57.1551C62.3984 51.4118 65.625 43.6223 65.625 35.5V35.5ZM52.5 37.6875H25.9219L38.1281 49.9528L35 53L17.5 35.5L35 18L38.1281 21.1216L25.9219 33.3125L52.5 33.3125V37.6875Z" fill="url(#paint0_linear_2_39)"/>
<defs>
<linearGradient id="paint0_linear_2_39" x1="35" y1="66.125" x2="35" y2="4.87499" gradientUnits="userSpaceOnUse">
<stop stop-color="#FFD863"/>
<stop offset="1" stop-color="#2D2307"/>
</linearGradient>
</defs>
</svg>
