<svg width="70" height="71" viewBox="0 0 70 71" fill="none" xmlns="http://www.w3.org/2000/svg">
<path d="M4.375 35.5C4.375 41.557 6.17113 47.4781 9.53624 52.5143C12.9014 57.5506 17.6843 61.4759 23.2803 63.7938C28.8763 66.1117 35.034 66.7182 40.9746 65.5365C46.9153 64.3549 52.3722 61.4381 56.6551 57.1551C60.9381 52.8722 63.8549 47.4153 65.0365 41.4746C66.2182 35.534 65.6117 29.3763 63.2938 23.7803C60.9759 18.1843 57.0506 13.4014 52.0143 10.0362C46.9781 6.67113 41.057 4.875 35 4.875C26.8777 4.875 19.0882 8.10155 13.3449 13.8449C7.60155 19.5882 4.375 27.3777 4.375 35.5V35.5ZM17.5 33.3125H44.0781L31.8719 21.0472L35 18L52.5 35.5L35 53L31.8719 49.8784L44.0781 37.6875H17.5V33.3125Z" fill="url(#paint0_linear_2_33)"/>
<defs>
<linearGradient id="paint0_linear_2_33" x1="35" y1="4.875" x2="35" y2="66.125" gradientUnits="userSpaceOnUse">
<stop stop-color="#2D2307"/>
<stop offset="1" stop-color="#FFD863"/>
</linearGradient>
</defs>
</svg>
